# xmcd CD database file
#
# Track frame offsets:
#	150
#	26376
#	51910
#	112864
#	138040
#	167984
#	216664
#
# Disc length: 3175 seconds
#
# Revision: 0
# Processed by: cddbd v1.5.2PL0 Copyright (c) Steve Scherf et al.
# Submitted via: CDex 1.51
#
DISCID=5d0c6507
DTITLE=Albert Collins and The Icebreakers - Live At Rockpalast Dortmund 1980  CD 2
DYEAR=1980
DGENRE=Blues
TTITLE0=The Things That I Used To Do
TTITLE1=If You Love Me Like You Say
TTITLE2=Cold Cuts
TTITLE3=I Got A Mind To Travel
TTITLE4=Angel Of Mercy
TTITLE5=Frosty
TTITLE6=Instrumental Jam
EXTD=YEAR: 1980
EXTT0=
EXTT1=
EXTT2=
EXTT3=
EXTT4=
EXTT5=
EXTT6=
PLAYORDER=
